<svg xmlns="http://www.w3.org/2000/svg" style="position:absolute; width: 0; height: 0"><symbol viewBox="0 0 1792 1792" id="icon-archive"><path d="M1088 832q0-26-19-45t-45-19H768q-26 0-45 19t-19 45 19 45 45 19h256q26 0 45-19t19-45zm576-192v960q0 26-19 45t-45 19H192q-26 0-45-19t-19-45V640q0-26 19-45t45-19h1408q26 0 45 19t19 45zm64-448v256q0 26-19 45t-45 19H128q-26 0-45-19t-19-45V192q0-26 19-45t45-19h1536q26 0 45 19t19 45z"></path></symbol><symbol viewBox="0 0 1792 1792" id="icon-bars"><path d="M1664 1344v128q0 26-19 45t-45 19H192q-26 0-45-19t-19-45v-128q0-26 19-45t45-19h1408q26 0 45 19t19 45zm0-512v128q0 26-19 45t-45 19H192q-26 0-45-19t-19-45V832q0-26 19-45t45-19h1408q26 0 45 19t19 45zm0-512v128q0 26-19 45t-45 19H192q-26 0-45-19t-19-45V320q0-26 19-45t45-19h1408q26 0 45 19t19 45z"></path></symbol><symbol viewBox="5.5 -3.5 64 64" id="icon-by"><circle fill="#FFF" cx="37.637" cy="28.806" r="28.276"></circle><path d="M37.443-3.5c8.988 0 16.57 3.085 22.742 9.257C66.393 11.967 69.5 19.548 69.5 28.5c0 8.991-3.049 16.476-9.145 22.456-6.476 6.363-14.113 9.544-22.912 9.544-8.649 0-16.153-3.144-22.514-9.43C8.644 44.784 5.5 37.262 5.5 28.5c0-8.761 3.144-16.342 9.429-22.742C21.101-.415 28.604-3.5 37.443-3.5zm.114 5.772c-7.276 0-13.428 2.553-18.457 7.657-5.22 5.334-7.829 11.525-7.829 18.572 0 7.086 2.59 13.22 7.77 18.398 5.181 5.182 11.352 7.771 18.514 7.771 7.123 0 13.334-2.607 18.629-7.828 5.029-4.838 7.543-10.952 7.543-18.343 0-7.276-2.553-13.465-7.656-18.571-5.104-5.104-11.276-7.656-18.514-7.656zm8.572 18.285v13.085h-3.656v15.542h-9.944V33.643h-3.656V20.557c0-.572.2-1.057.599-1.457.401-.399.887-.6 1.457-.6h13.144c.533 0 1.01.2 1.428.6.417.4.628.886.628 1.457zm-13.087-8.228c0-3.008 1.485-4.514 4.458-4.514s4.457 1.504 4.457 4.514c0 2.971-1.486 4.457-4.457 4.457s-4.458-1.486-4.458-4.457z"></path></symbol><symbol viewBox="5.5 -3.5 64 64" id="icon-cc"><circle fill="#FFF" cx="37.785" cy="28.501" r="28.836"></circle><path d="M37.441-3.5c8.951 0 16.572 3.125 22.857 9.372 3.008 3.009 5.295 6.448 6.857 10.314 1.561 3.867 2.344 7.971 2.344 12.314 0 4.381-.773 8.486-2.314 12.313-1.543 3.828-3.82 7.21-6.828 10.143-3.123 3.085-6.666 5.448-10.629 7.086-3.961 1.638-8.057 2.457-12.285 2.457s-8.276-.808-12.143-2.429c-3.866-1.618-7.333-3.961-10.4-7.027-3.067-3.066-5.4-6.524-7-10.372S5.5 32.767 5.5 28.5c0-4.229.809-8.295 2.428-12.2 1.619-3.905 3.972-7.4 7.057-10.486C21.08-.394 28.565-3.5 37.441-3.5zm.116 5.772c-7.314 0-13.467 2.553-18.458 7.657-2.515 2.553-4.448 5.419-5.8 8.6a25.204 25.204 0 0 0-2.029 9.972c0 3.429.675 6.734 2.029 9.913 1.353 3.183 3.285 6.021 5.8 8.516 2.514 2.496 5.351 4.399 8.515 5.715a25.652 25.652 0 0 0 9.943 1.971c3.428 0 6.75-.665 9.973-1.999 3.219-1.335 6.121-3.257 8.713-5.771 4.99-4.876 7.484-10.99 7.484-18.344 0-3.543-.648-6.895-1.943-10.057-1.293-3.162-3.18-5.98-5.654-8.458-5.146-5.143-11.335-7.715-18.573-7.715zm-.401 20.915l-4.287 2.229c-.458-.951-1.019-1.619-1.685-2-.667-.38-1.286-.571-1.858-.571-2.856 0-4.286 1.885-4.286 5.657 0 1.714.362 3.084 1.085 4.113.724 1.029 1.791 1.544 3.201 1.544 1.867 0 3.181-.915 3.944-2.743l3.942 2c-.838 1.563-2 2.791-3.486 3.686-1.484.896-3.123 1.343-4.914 1.343-2.857 0-5.163-.875-6.915-2.629-1.752-1.752-2.628-4.19-2.628-7.313 0-3.048.886-5.466 2.657-7.257 1.771-1.79 4.009-2.686 6.715-2.686 3.963-.002 6.8 1.541 8.515 4.627zm18.457 0l-4.229 2.229c-.457-.951-1.02-1.619-1.686-2-.668-.38-1.307-.571-1.914-.571-2.857 0-4.287 1.885-4.287 5.657 0 1.714.363 3.084 1.086 4.113.723 1.029 1.789 1.544 3.201 1.544 1.865 0 3.18-.915 3.941-2.743l4 2c-.875 1.563-2.057 2.791-3.541 3.686a9.233 9.233 0 0 1-4.857 1.343c-2.896 0-5.209-.875-6.941-2.629-1.736-1.752-2.602-4.19-2.602-7.313 0-3.048.885-5.466 2.658-7.257 1.77-1.79 4.008-2.686 6.713-2.686 3.962-.002 6.783 1.541 8.458 4.627z"></path></symbol><symbol viewBox="0 0 2048 1792" id="icon-code"><path d="M681 1399l-50 50q-10 10-23 10t-23-10L119 983q-10-10-10-23t10-23l466-466q10-10 23-10t23 10l50 50q10 10 10 23t-10 23L288 960l393 393q10 10 10 23t-10 23zm591-1067L899 1623q-4 13-15.5 19.5T860 1645l-62-17q-13-4-19.5-15.5T776 1588l373-1291q4-13 15.5-19.5t23.5-2.5l62 17q13 4 19.5 15.5t2.5 24.5zm657 651l-466 466q-10 10-23 10t-23-10l-50-50q-10-10-10-23t10-23l393-393-393-393q-10-10-10-23t10-23l50-50q10-10 23-10t23 10l466 466q10 10 10 23t-10 23z"></path></symbol><symbol viewBox="0 0 1792 1792" id="icon-commenting"><path d="M640 896q0-53-37.5-90.5T512 768t-90.5 37.5T384 896t37.5 90.5T512 1024t90.5-37.5T640 896zm384 0q0-53-37.5-90.5T896 768t-90.5 37.5T768 896t37.5 90.5T896 1024t90.5-37.5T1024 896zm384 0q0-53-37.5-90.5T1280 768t-90.5 37.5T1152 896t37.5 90.5 90.5 37.5 90.5-37.5T1408 896zm384 0q0 174-120 321.5t-326 233-450 85.5q-110 0-211-18-173 173-435 229-52 10-86 13-12 1-22-6t-13-18q-4-15 20-37 5-5 23.5-21.5T198 1654t23.5-25.5 24-31.5 20.5-37 20-48 14.5-57.5T313 1382q-146-90-229.5-216.5T0 896q0-174 120-321.5t326-233T896 256t450 85.5 326 233T1792 896z"></path></symbol><symbol viewBox="0 0 1792 1792" id="icon-comments"><path d="M1408 768q0 139-94 257t-256.5 186.5T704 1280q-86 0-176-16-124 88-278 128-36 9-86 16h-3q-11 0-20.5-8t-11.5-21q-1-3-1-6.5t.5-6.5 2-6l2.5-5 3.5-5.5 4-5 4.5-5 4-4.5q5-6 23-25t26-29.5 22.5-29 25-38.5 20.5-44q-124-72-195-177T0 768q0-139 94-257t256.5-186.5T704 256t353.5 68.5T1314 511t94 257zm384 256q0 120-71 224.5T1526 1425q10 24 20.5 44t25 38.5 22.5 29 26 29.5 23 25q1 1 4 4.5t4.5 5 4 5 3.5 5.5l2.5 5 2 6 .5 6.5-1 6.5q-3 14-13 22t-22 7q-50-7-86-16-154-40-278-128-90 16-176 16-271 0-472-132 58 4 88 4 161 0 309-45t264-129q125-92 192-212t67-254q0-77-23-152 129 71 204 178t75 230z"></path></symbol><symbol viewBox="0 0 1792 1792" id="icon-copyright"><path d="M1278 1074v109q0 50-36.5 89t-94 60.5-118 32.5-117.5 11q-205 0-342.5-139T432 891q0-203 136-339t339-136q34 0 75.5 4.5t93 18 92.5 34 69 56.5 28 81v109q0 16-16 16h-118q-16 0-16-16v-70q0-43-65.5-67.5T912 557q-140 0-228.5 91.5T595 886q0 151 91.5 249.5T920 1234q68 0 138-24t70-66v-70q0-7 4.5-11.5t10.5-4.5h119q6 0 11 4.5t5 11.5zM896 256q-130 0-248.5 51t-204 136.5-136.5 204T256 896t51 248.5 136.5 204 204 136.5 248.5 51 248.5-51 204-136.5 136.5-204 51-248.5-51-248.5-136.5-204-204-136.5T896 256zm768 640q0 209-103 385.5T1281.5 1561 896 1664t-385.5-103T231 1281.5 128 896t103-385.5T510.5 231 896 128t385.5 103T1561 510.5 1664 896z"></path></symbol><symbol viewBox="0 0 1792 1792" id="icon-eye"><path d="M1664 960q-152-236-381-353 61 104 61 225 0 185-131.5 316.5T896 1280t-316.5-131.5T448 832q0-121 61-225-229 117-381 353 133 205 333.5 326.5T896 1408t434.5-121.5T1664 960zM944 576q0-20-14-34t-34-14q-125 0-214.5 89.5T592 832q0 20 14 34t34 14 34-14 14-34q0-86 61-147t147-61q20 0 34-14t14-34zm848 384q0 34-20 69-140 230-376.5 368.5T896 1536t-499.5-139T20 1029Q0 994 0 960t20-69q140-229 376.5-368T896 384t499.5 139T1772 891q20 35 20 69z"></path></symbol><symbol viewBox="0 0 1792 1792" id="icon-filter"><path d="M1595 295q17 41-14 70l-493 493v742q0 42-39 59-13 5-25 5-27 0-45-19l-256-256q-19-19-19-45V858L211 365q-31-29-14-70 17-39 59-39h1280q42 0 59 39z"></path></symbol><symbol viewBox="0 0 1792 1792" id="icon-hashtag"><path d="M991 1024l64-256H801l-64 256h254zm768-504l-56 224q-7 24-31 24h-327l-64 256h311q15 0 25 12 10 14 6 28l-56 224q-5 24-31 24h-327l-81 328q-7 24-31 24H873q-16 0-26-12-9-12-6-28l78-312H665l-81 328q-7 24-31 24H328q-15 0-25-12-9-12-6-28l78-312H64q-15 0-25-12-9-12-6-28l56-224q7-24 31-24h327l64-256H200q-15 0-25-12-10-14-6-28l56-224q5-24 31-24h327l81-328q7-24 32-24h224q15 0 25 12 9 12 6 28l-78 312h254l81-328q7-24 32-24h224q15 0 25 12 9 12 6 28l-78 312h311q15 0 25 12 9 12 6 28z"></path></symbol><symbol viewBox="0 0 1792 1792" id="icon-link"><path d="M1520 1216q0-40-28-68l-208-208q-28-28-68-28-42 0-72 32 3 3 19 18.5t21.5 21.5 15 19 13 25.5 3.5 27.5q0 40-28 68t-68 28q-15 0-27.5-3.5t-25.5-13-19-15-21.5-21.5-18.5-19q-33 31-33 73 0 40 28 68l206 207q27 27 68 27 40 0 68-26l147-146q28-28 28-67zM817 511q0-40-28-68L583 236q-28-28-68-28-39 0-68 27L300 381q-28 28-28 67 0 40 28 68l208 208q27 27 68 27 42 0 72-31-3-3-19-18.5T607.5 680t-15-19-13-25.5T576 608q0-40 28-68t68-28q15 0 27.5 3.5t25.5 13 19 15 21.5 21.5 18.5 19q33-31 33-73zm895 705q0 120-85 203l-147 146q-83 83-203 83-121 0-204-85l-206-207q-83-83-83-203 0-123 88-209l-88-88q-86 88-208 88-120 0-204-84L164 652q-84-84-84-204t85-203L312 99q83-83 203-83 121 0 204 85l206 207q83 83 83 203 0 123-88 209l88 88q86-88 208-88 120 0 204 84l208 208q84 84 84 204z"></path></symbol><symbol viewBox="0 0 1792 1792" id="icon-list"><path d="M256 1312v192q0 13-9.5 22.5T224 1536H32q-13 0-22.5-9.5T0 1504v-192q0-13 9.5-22.5T32 1280h192q13 0 22.5 9.5t9.5 22.5zm0-384v192q0 13-9.5 22.5T224 1152H32q-13 0-22.5-9.5T0 1120V928q0-13 9.5-22.5T32 896h192q13 0 22.5 9.5T256 928zm0-384v192q0 13-9.5 22.5T224 768H32q-13 0-22.5-9.5T0 736V544q0-13 9.5-22.5T32 512h192q13 0 22.5 9.5T256 544zm1536 768v192q0 13-9.5 22.5t-22.5 9.5H416q-13 0-22.5-9.5T384 1504v-192q0-13 9.5-22.5t22.5-9.5h1344q13 0 22.5 9.5t9.5 22.5zM256 160v192q0 13-9.5 22.5T224 384H32q-13 0-22.5-9.5T0 352V160q0-13 9.5-22.5T32 128h192q13 0 22.5 9.5T256 160zm1536 768v192q0 13-9.5 22.5t-22.5 9.5H416q-13 0-22.5-9.5T384 1120V928q0-13 9.5-22.5T416 896h1344q13 0 22.5 9.5t9.5 22.5zm0-384v192q0 13-9.5 22.5T1760 768H416q-13 0-22.5-9.5T384 736V544q0-13 9.5-22.5T416 512h1344q13 0 22.5 9.5t9.5 22.5zm0-384v192q0 13-9.5 22.5T1760 384H416q-13 0-22.5-9.5T384 352V160q0-13 9.5-22.5T416 128h1344q13 0 22.5 9.5t9.5 22.5z"></path></symbol><symbol viewBox="5.5 -3.5 64 64" id="icon-nc"><circle fill="#FFF" cx="37.47" cy="28.736" r="29.471"></circle><path d="M37.442-3.5c8.99 0 16.571 3.085 22.743 9.256C66.393 11.928 69.5 19.509 69.5 28.5c0 8.992-3.048 16.476-9.145 22.458C53.88 57.32 46.241 60.5 37.442 60.5c-8.686 0-16.19-3.162-22.513-9.485C8.644 44.728 5.5 37.225 5.5 28.5c0-8.762 3.144-16.343 9.429-22.743C21.1-.414 28.604-3.5 37.442-3.5zM12.7 19.872c-.952 2.628-1.429 5.505-1.429 8.629 0 7.086 2.59 13.22 7.77 18.4 5.219 5.144 11.391 7.715 18.514 7.715 7.201 0 13.409-2.608 18.63-7.829 1.867-1.79 3.332-3.657 4.398-5.602l-12.056-5.371c-.421 2.02-1.439 3.667-3.057 4.942-1.622 1.276-3.535 2.011-5.744 2.2v4.915h-3.714v-4.915c-3.543-.036-6.782-1.312-9.714-3.827l4.4-4.457c2.094 1.942 4.476 2.913 7.143 2.913 1.104 0 2.048-.246 2.83-.743.78-.494 1.172-1.312 1.172-2.457 0-.801-.287-1.448-.858-1.943L37.9 31.127l-3.771-1.715-5.086-2.229L12.7 19.872zM37.557 2.214c-7.276 0-13.428 2.571-18.457 7.714a30.623 30.623 0 0 0-3.543 4.287L27.786 19.7c.533-1.676 1.542-3.019 3.029-4.028 1.484-1.009 3.218-1.571 5.2-1.686V9.071h3.715v4.915c2.934.153 5.6 1.143 8 2.971l-4.172 4.286c-1.793-1.257-3.619-1.885-5.486-1.885-.991 0-1.876.191-2.656.571-.781.381-1.172 1.029-1.172 1.943 0 .267.095.533.285.8l4.057 1.83 2.8 1.257 5.144 2.285 16.397 7.314a29.51 29.51 0 0 0 .801-6.857c0-7.353-2.552-13.543-7.656-18.573-5.067-5.143-11.241-7.714-18.515-7.714z"></path></symbol><symbol viewBox="0 0 64.000977 64" id="icon-nd"><circle fill="#FFF" cx="32.064" cy="31.788" r="29.013"></circle><path d="M31.944 0c8.952 0 16.533 3.105 22.744 9.314C60.895 15.486 64 23.046 64 32s-3.049 16.457-9.146 22.514C48.418 60.838 40.78 64 31.943 64c-8.65 0-16.153-3.143-22.514-9.43C3.144 48.286 0 40.762 0 32.001c0-8.724 3.144-16.285 9.43-22.685C15.64 3.106 23.144 0 31.943 0zm.117 5.771c-7.276 0-13.43 2.57-18.459 7.715-5.22 5.297-7.83 11.468-7.83 18.514 0 7.125 2.59 13.257 7.771 18.4 5.181 5.182 11.352 7.77 18.516 7.77 7.123 0 13.332-2.607 18.627-7.827 5.028-4.876 7.543-10.99 7.543-18.343 0-7.313-2.554-13.484-7.657-18.514-5.067-5.144-11.238-7.715-18.511-7.715zm12.056 18.685v5.485H20.86v-5.485h23.257zm0 10.287v5.482H20.86v-5.482h23.257z"></path></symbol><symbol viewBox="0 0 1792 1792" id="icon-pencil"><path d="M491 1536l91-91-235-235-91 91v107h128v128h107zm523-928q0-22-22-22-10 0-17 7l-542 542q-7 7-7 17 0 22 22 22 10 0 17-7l542-542q7-7 7-17zm-54-192l416 416-832 832H128v-416zm683 96q0 53-37 90l-166 166-416-416 166-165q36-38 90-38 53 0 91 38l235 234q37 39 37 91z"></path></symbol><symbol viewBox="0 0 1792 1792" id="icon-qrcode"><path d="M576 1152v128H448v-128h128zm0-768v128H448V384h128zm768 0v128h-128V384h128zM320 1407h384v-383H320v383zm0-767h384V256H320v384zm768 0h384V256h-384v384zM832 896v640H192V896h640zm512 512v128h-128v-128h128zm256 0v128h-128v-128h128zm0-512v384h-384v-128h-128v384H960V896h384v128h128V896h128zM832 128v640H192V128h640zm768 0v640H960V128h640z"></path></symbol><symbol viewBox="0 0 1792 1792" id="icon-rss-square"><path d="M640 1280q0-53-37.5-90.5T512 1152t-90.5 37.5T384 1280t37.5 90.5T512 1408t90.5-37.5T640 1280zm351 94q-13-233-176.5-396.5T418 801q-14-1-24 9t-10 23v128q0 13 8.5 22t21.5 10q154 11 264 121t121 264q1 13 10 21.5t22 8.5h128q13 0 23-10t9-24zm384 1q-5-154-56-297.5t-139.5-260-205-205-260-139.5T417 417q-14-1-23 9-10 10-10 23v128q0 13 9 22t22 10q204 7 378 111.5T1071.5 999t111.5 378q1 13 10 22t22 9h128q13 0 23-10 11-9 9-23zm289-959v960q0 119-84.5 203.5T1376 1664H416q-119 0-203.5-84.5T128 1376V416q0-119 84.5-203.5T416 128h960q119 0 203.5 84.5T1664 416z"></path></symbol><symbol viewBox="5.5 -3.5 64 64" id="icon-sa"><circle fill="#FFF" cx="36.944" cy="28.631" r="29.105"></circle><path d="M37.443-3.5c8.951 0 16.531 3.105 22.742 9.315C66.393 11.987 69.5 19.548 69.5 28.5c0 8.954-3.049 16.457-9.145 22.514-6.437 6.324-14.076 9.486-22.912 9.486-8.649 0-16.153-3.143-22.514-9.429C8.644 44.786 5.5 37.264 5.5 28.501c0-8.723 3.144-16.285 9.429-22.685C21.138-.395 28.643-3.5 37.443-3.5zm.114 5.772c-7.276 0-13.428 2.572-18.457 7.715-5.22 5.296-7.829 11.467-7.829 18.513 0 7.125 2.59 13.257 7.77 18.4 5.181 5.182 11.352 7.771 18.514 7.771 7.123 0 13.334-2.609 18.629-7.828 5.029-4.876 7.543-10.99 7.543-18.343 0-7.313-2.553-13.485-7.656-18.513-5.067-5.145-11.239-7.715-18.514-7.715zM23.271 23.985c.609-3.924 2.189-6.962 4.742-9.114 2.552-2.152 5.656-3.228 9.314-3.228 5.027 0 9.029 1.62 12 4.856 2.971 3.238 4.457 7.391 4.457 12.457 0 4.915-1.543 9-4.627 12.256-3.088 3.256-7.086 4.886-12.002 4.886-3.619 0-6.743-1.085-9.371-3.257-2.629-2.172-4.209-5.257-4.743-9.257H31.1c.19 3.886 2.533 5.829 7.029 5.829 2.246 0 4.057-.972 5.428-2.914 1.373-1.942 2.059-4.534 2.059-7.771 0-3.391-.629-5.971-1.885-7.743-1.258-1.771-3.066-2.657-5.43-2.657-4.268 0-6.667 1.885-7.2 5.656h2.343l-6.342 6.343-6.343-6.343 2.512.001z"></path></symbol><symbol viewBox="0 0 1792 1792" id="icon-search"><path d="M1216 832q0-185-131.5-316.5T768 384 451.5 515.5 320 832t131.5 316.5T768 1280t316.5-131.5T1216 832zm512 832q0 52-38 90t-90 38q-54 0-90-38l-343-342q-179 124-399 124-143 0-273.5-55.5t-225-150-150-225T64 832t55.5-273.5 150-225 225-150T768 128t273.5 55.5 225 150 150 225T1472 832q0 220-124 399l343 343q37 37 37 90z"></path></symbol><symbol viewBox="0 0 1792 1792" id="icon-times"><path d="M1490 1322q0 40-28 68l-136 136q-28 28-68 28t-68-28l-294-294-294 294q-28 28-68 28t-68-28l-136-136q-28-28-28-68t28-68l294-294-294-294q-28-28-28-68t28-68l136-136q28-28 68-28t68 28l294 294 294-294q28-28 68-28t68 28l136 136q28 28 28 68t-28 68l-294 294 294 294q28 28 28 68z"></path></symbol></svg>