<svg xmlns="http://www.w3.org/2000/svg" style="position:absolute; width: 0; height: 0"><symbol viewBox="0 0 2048 1792" id="icon-code"><path d="M681 1399l-50 50q-10 10-23 10t-23-10L119 983q-10-10-10-23t10-23l466-466q10-10 23-10t23 10l50 50q10 10 10 23t-10 23L288 960l393 393q10 10 10 23t-10 23zm591-1067L899 1623q-4 13-15.5 19.5T860 1645l-62-17q-13-4-19.5-15.5T776 1588l373-1291q4-13 15.5-19.5t23.5-2.5l62 17q13 4 19.5 15.5t2.5 24.5zm657 651l-466 466q-10 10-23 10t-23-10l-50-50q-10-10-10-23t10-23l393-393-393-393q-10-10-10-23t10-23l50-50q10-10 23-10t23 10l466 466q10 10 10 23t-10 23z"></path></symbol><symbol viewBox="0 0 1792 1792" id="icon-commenting"><path d="M640 896q0-53-37.5-90.5T512 768t-90.5 37.5T384 896t37.5 90.5T512 1024t90.5-37.5T640 896zm384 0q0-53-37.5-90.5T896 768t-90.5 37.5T768 896t37.5 90.5T896 1024t90.5-37.5T1024 896zm384 0q0-53-37.5-90.5T1280 768t-90.5 37.5T1152 896t37.5 90.5 90.5 37.5 90.5-37.5T1408 896zm384 0q0 174-120 321.5t-326 233-450 85.5q-110 0-211-18-173 173-435 229-52 10-86 13-12 1-22-6t-13-18q-4-15 20-37 5-5 23.5-21.5T198 1654t23.5-25.5 24-31.5 20.5-37 20-48 14.5-57.5T313 1382q-146-90-229.5-216.5T0 896q0-174 120-321.5t326-233T896 256t450 85.5 326 233T1792 896z"></path></symbol><symbol viewBox="0 0 1792 1792" id="icon-comments"><path d="M1408 768q0 139-94 257t-256.5 186.5T704 1280q-86 0-176-16-124 88-278 128-36 9-86 16h-3q-11 0-20.5-8t-11.5-21q-1-3-1-6.5t.5-6.5 2-6l2.5-5 3.5-5.5 4-5 4.5-5 4-4.5q5-6 23-25t26-29.5 22.5-29 25-38.5 20.5-44q-124-72-195-177T0 768q0-139 94-257t256.5-186.5T704 256t353.5 68.5T1314 511t94 257zm384 256q0 120-71 224.5T1526 1425q10 24 20.5 44t25 38.5 22.5 29 26 29.5 23 25q1 1 4 4.5t4.5 5 4 5 3.5 5.5l2.5 5 2 6 .5 6.5-1 6.5q-3 14-13 22t-22 7q-50-7-86-16-154-40-278-128-90 16-176 16-271 0-472-132 58 4 88 4 161 0 309-45t264-129q125-92 192-212t67-254q0-77-23-152 129 71 204 178t75 230z"></path></symbol><symbol viewBox="0 0 1792 1792" id="icon-copyright"><path d="M1278 1074v109q0 50-36.5 89t-94 60.5-118 32.5-117.5 11q-205 0-342.5-139T432 891q0-203 136-339t339-136q34 0 75.5 4.5t93 18 92.5 34 69 56.5 28 81v109q0 16-16 16h-118q-16 0-16-16v-70q0-43-65.5-67.5T912 557q-140 0-228.5 91.5T595 886q0 151 91.5 249.5T920 1234q68 0 138-24t70-66v-70q0-7 4.5-11.5t10.5-4.5h119q6 0 11 4.5t5 11.5zM896 256q-130 0-248.5 51t-204 136.5-136.5 204T256 896t51 248.5 136.5 204 204 136.5 248.5 51 248.5-51 204-136.5 136.5-204 51-248.5-51-248.5-136.5-204-204-136.5T896 256zm768 640q0 209-103 385.5T1281.5 1561 896 1664t-385.5-103T231 1281.5 128 896t103-385.5T510.5 231 896 128t385.5 103T1561 510.5 1664 896z"></path></symbol><symbol viewBox="0 0 1792 1792" id="icon-eye"><path d="M1664 960q-152-236-381-353 61 104 61 225 0 185-131.5 316.5T896 1280t-316.5-131.5T448 832q0-121 61-225-229 117-381 353 133 205 333.5 326.5T896 1408t434.5-121.5T1664 960zM944 576q0-20-14-34t-34-14q-125 0-214.5 89.5T592 832q0 20 14 34t34 14 34-14 14-34q0-86 61-147t147-61q20 0 34-14t14-34zm848 384q0 34-20 69-140 230-376.5 368.5T896 1536t-499.5-139T20 1029Q0 994 0 960t20-69q140-229 376.5-368T896 384t499.5 139T1772 891q20 35 20 69z"></path></symbol><symbol viewBox="0 0 1792 1792" id="icon-filter"><path d="M1595 295q17 41-14 70l-493 493v742q0 42-39 59-13 5-25 5-27 0-45-19l-256-256q-19-19-19-45V858L211 365q-31-29-14-70 17-39 59-39h1280q42 0 59 39z"></path></symbol><symbol viewBox="0 0 1792 1792" id="icon-hashtag"><path d="M991 1024l64-256H801l-64 256h254zm768-504l-56 224q-7 24-31 24h-327l-64 256h311q15 0 25 12 10 14 6 28l-56 224q-5 24-31 24h-327l-81 328q-7 24-31 24H873q-16 0-26-12-9-12-6-28l78-312H665l-81 328q-7 24-31 24H328q-15 0-25-12-9-12-6-28l78-312H64q-15 0-25-12-9-12-6-28l56-224q7-24 31-24h327l64-256H200q-15 0-25-12-10-14-6-28l56-224q5-24 31-24h327l81-328q7-24 32-24h224q15 0 25 12 9 12 6 28l-78 312h254l81-328q7-24 32-24h224q15 0 25 12 9 12 6 28l-78 312h311q15 0 25 12 9 12 6 28z"></path></symbol><symbol viewBox="0 0 1792 1792" id="icon-link"><path d="M1520 1216q0-40-28-68l-208-208q-28-28-68-28-42 0-72 32 3 3 19 18.5t21.5 21.5 15 19 13 25.5 3.5 27.5q0 40-28 68t-68 28q-15 0-27.5-3.5t-25.5-13-19-15-21.5-21.5-18.5-19q-33 31-33 73 0 40 28 68l206 207q27 27 68 27 40 0 68-26l147-146q28-28 28-67zM817 511q0-40-28-68L583 236q-28-28-68-28-39 0-68 27L300 381q-28 28-28 67 0 40 28 68l208 208q27 27 68 27 42 0 72-31-3-3-19-18.5T607.5 680t-15-19-13-25.5T576 608q0-40 28-68t68-28q15 0 27.5 3.5t25.5 13 19 15 21.5 21.5 18.5 19q33-31 33-73zm895 705q0 120-85 203l-147 146q-83 83-203 83-121 0-204-85l-206-207q-83-83-83-203 0-123 88-209l-88-88q-86 88-208 88-120 0-204-84L164 652q-84-84-84-204t85-203L312 99q83-83 203-83 121 0 204 85l206 207q83 83 83 203 0 123-88 209l88 88q86-88 208-88 120 0 204 84l208 208q84 84 84 204z"></path></symbol><symbol viewBox="0 0 1792 1792" id="icon-pencil"><path d="M491 1536l91-91-235-235-91 91v107h128v128h107zm523-928q0-22-22-22-10 0-17 7l-542 542q-7 7-7 17 0 22 22 22 10 0 17-7l542-542q7-7 7-17zm-54-192l416 416-832 832H128v-416zm683 96q0 53-37 90l-166 166-416-416 166-165q36-38 90-38 53 0 91 38l235 234q37 39 37 91z"></path></symbol><symbol viewBox="0 0 1792 1792" id="icon-qrcode"><path d="M576 1152v128H448v-128h128zm0-768v128H448V384h128zm768 0v128h-128V384h128zM320 1407h384v-383H320v383zm0-767h384V256H320v384zm768 0h384V256h-384v384zM832 896v640H192V896h640zm512 512v128h-128v-128h128zm256 0v128h-128v-128h128zm0-512v384h-384v-128h-128v384H960V896h384v128h128V896h128zM832 128v640H192V128h640zm768 0v640H960V128h640z"></path></symbol></svg>